<svg xmlns="http://www.w3.org/2000/svg" id="Layer_2" viewBox="0 0 1507.12 335.62"><defs><style>.cls-1{fill:#00bbd3;}.cls-2{fill:#213164;}</style></defs><g id="Layer_1-2"><path class="cls-2" d="m419.28,109.66c-4.34-5.64-9.84-9.98-16.49-13.02-6.66-3.04-13.53-4.56-20.61-4.56-8.68,0-16.53,1.62-23.54,4.88-7.02,3.26-13.02,7.7-18.01,13.35-4.98,5.64-8.86,12.26-11.6,19.85-2.75,7.6-4.13,15.73-4.13,24.41,0,8.1,1.3,15.77,3.9,23,2.6,7.23,6.37,13.59,11.28,19.09,4.92,5.5,10.93,9.84,18.01,13.02,7.08,3.19,15.11,4.77,24.08,4.77s16.57-1.81,23.22-5.42c6.65-3.61,12.29-8.68,16.92-15.18l17.58,13.23c-1.16,1.59-3.18,3.87-6.07,6.84-2.9,2.97-6.73,5.93-11.5,8.89-4.77,2.97-10.52,5.57-17.24,7.82-6.73,2.24-14.51,3.36-23.33,3.36-12.15,0-23.1-2.32-32.87-6.94-9.76-4.63-18.08-10.7-24.95-18.23-6.87-7.52-12.12-16.01-15.73-25.49-3.61-9.47-5.42-19.06-5.42-28.75,0-11.86,1.95-22.81,5.85-32.86,3.9-10.06,9.36-18.74,16.39-26.04,7.01-7.3,15.44-12.99,25.27-17.03,9.84-4.05,20.68-6.07,32.55-6.07,10.12,0,20.07,1.95,29.82,5.85,9.77,3.91,17.76,9.92,23.98,18.01l-17.36,13.24Z"></path><path class="cls-2" d="m467.23,76.47h99.15v19.52h-78.32v45.79h72.91v19.52h-72.91v49.25h82.23v19.53h-103.05V76.47Z"></path><path class="cls-2" d="m802.66,76.47v94.16c0,4.77.65,9.73,1.95,14.86,1.3,5.14,3.47,9.87,6.51,14.21,3.04,4.34,7.02,7.89,11.94,10.63,4.91,2.74,10.99,4.12,18.22,4.12s13.31-1.37,18.23-4.12c4.91-2.74,8.89-6.3,11.93-10.63,3.05-4.34,5.22-9.07,6.52-14.21,1.3-5.14,1.95-10.09,1.95-14.86v-94.16h20.83v97.41c0,8.97-1.52,17.11-4.56,24.41-3.04,7.3-7.23,13.64-12.58,18.99-5.36,5.36-11.64,9.47-18.88,12.37-7.23,2.89-15.04,4.34-23.44,4.34s-16.19-1.45-23.43-4.34c-7.23-2.9-13.53-7.01-18.88-12.37-5.35-5.35-9.54-11.68-12.58-18.99-3.04-7.29-4.56-15.44-4.56-24.41v-97.41h20.83Z"></path><path class="cls-2" d="m939.55,76.47h99.15v19.52h-78.32v45.79h72.91v19.52h-72.91v49.25h82.23v19.53h-103.05V76.47Z"></path><path class="cls-2" d="m1074.29,76.47h27.33l84.62,126.27h.43v-126.27h20.82v153.61h-26.46l-85.49-126.28h-.43v126.28h-20.82V76.47Z"></path><path class="cls-2" d="m1356.11,109.66c-4.34-5.64-9.84-9.98-16.49-13.02-6.66-3.04-13.53-4.56-20.61-4.56-8.68,0-16.53,1.62-23.54,4.88-7.02,3.26-13.02,7.7-18.01,13.35-4.98,5.64-8.86,12.26-11.6,19.85-2.75,7.6-4.13,15.73-4.13,24.41,0,8.1,1.3,15.77,3.9,23,2.6,7.23,6.37,13.59,11.28,19.09,4.92,5.5,10.93,9.84,18.01,13.02,7.08,3.19,15.11,4.77,24.08,4.77s16.57-1.81,23.22-5.42c6.65-3.61,12.29-8.68,16.92-15.18l17.58,13.23c-1.16,1.59-3.18,3.87-6.07,6.84-2.9,2.97-6.73,5.93-11.5,8.89-4.77,2.97-10.52,5.57-17.24,7.82-6.73,2.24-14.51,3.36-23.33,3.36-12.15,0-23.1-2.32-32.87-6.94-9.76-4.63-18.08-10.7-24.95-18.23-6.87-7.52-12.12-16.01-15.73-25.49-3.61-9.47-5.42-19.06-5.42-28.75,0-11.86,1.95-22.81,5.85-32.86,3.9-10.06,9.36-18.74,16.39-26.04,7.01-7.3,15.44-12.99,25.27-17.03,9.84-4.05,20.68-6.07,32.55-6.07,10.12,0,20.07,1.95,29.82,5.85,9.77,3.91,17.76,9.92,23.98,18.01l-17.36,13.24Z"></path><path class="cls-2" d="m1404.07,76.47h99.15v19.52h-78.32v45.79h72.91v19.52h-72.91v49.25h82.23v19.53h-103.05V76.47Z"></path><path class="cls-2" d="m734.52,205.7c4.92-6.07,8.96-12.9,12.05-20.55,3.98-9.83,5.97-20.46,5.97-31.89s-2-22.06-5.97-31.89c-3.98-9.83-9.47-18.36-16.49-25.6-7.02-7.23-15.45-12.91-25.27-17.03-9.84-4.13-20.61-6.18-32.33-6.18s-22.5,2.06-32.33,6.18c-9.85,4.12-18.26,9.8-25.28,17.03-7.01,7.23-12.51,15.77-16.49,25.6-3.98,9.84-5.96,20.47-5.96,31.89s1.99,22.07,5.96,31.89c3.98,9.84,9.47,18.37,16.49,25.61,7.02,7.23,15.44,12.9,25.28,17.03,9.83,4.13,20.6,6.18,32.33,6.18s22.49-2.06,32.33-6.18c6.27-2.63,11.9-5.96,17.03-9.86,6.18,6.04,20.01,20.29,32.46,33.35l12.71-12.13c-17.32-18.16-26.82-28.05-32.49-33.45Zm-38.18,3.87c-7.08,3.25-15.04,4.87-23.86,4.87s-16.79-1.62-23.87-4.87c-7.08-3.26-13.16-7.63-18.22-13.13-5.06-5.5-8.97-11.97-11.71-19.42-2.75-7.45-4.13-15.37-4.13-23.76s1.37-16.3,4.13-23.75c2.74-7.46,6.65-13.92,11.71-19.42,5.06-5.5,11.14-9.87,18.22-13.13,7.08-3.26,15.04-4.88,23.87-4.88s16.78,1.62,23.86,4.88c7.08,3.26,13.16,7.63,18.22,13.13,5.06,5.5,8.97,11.97,11.72,19.42,2.74,7.45,4.12,15.37,4.12,23.75s-1.37,16.31-4.12,23.76c-2.75,7.46-6.66,13.92-11.72,19.42-5.07,5.5-11.14,9.87-18.22,13.13Z"></path><polygon class="cls-1" points="238.47 192.03 238.47 103.28 .11 246.86 0 246.93 0 335.56 .11 335.62 238.47 192.03"></polygon><polygon class="cls-1" points="0 0 0 88.75 99.82 148.89 173.49 104.51 0 0"></polygon></g></svg>